#Comment line ignore any data following # character 
#Hierarchical Translation and Rotation (.htr) file 
[Header]	
#Header keywords are followed by a single value 
FileType HTR		#Single word string
DataType HTRS		#Translation followed by rotation and scale data
FileVersion 1		#integer
NumSegments 64		#integer
NumFrames 3		#integer
DataFrameRate 30		#integer, data frame rate in this file
EulerRotationOrder ZYX
CalibrationUnits mm
RotationUnits Degrees
GlobalAxisofGravity Y
BoneLengthAxis Y
ScaleFactor 1.00
[SegmentNames&Hierarchy]
#CHILD	PARENT
Pinger_Root GLOBAL
Pelvis Pinger_Root
L_Hip Pelvis
R_Hip Pelvis
Rear_Leg01 Pelvis
Spine1 Pelvis
L_Leg01 L_Hip
L_Leg02 L_Leg01
L_Leg03 L_Leg02
L_Foot L_Leg03
L_Toe1_01 L_Foot
L_Toe2_01 L_Foot
L_Toe3_01 L_Foot
planeAlignerLeft L_Foot
L_Toe1_02 L_Toe1_01
L_Toe1_03 L_Toe1_02
L_Toe2_02 L_Toe2_01
L_Toe2_03 L_Toe2_02
L_Toe3_02 L_Toe3_01
L_Toe3_03 L_Toe3_02
planeLockWeightLeft planeAlignerLeft
R_Leg01 R_Hip
R_Leg02 R_Leg01
R_Leg03 R_Leg02
R_Foot R_Leg03
planeAlignerRight R_Foot
R_Toe1_01 R_Foot
R_Toe2_01 R_Foot
R_Toe3_01 R_Foot
planeLockWeightRight planeAlignerRight
R_Toe1_02 R_Toe1_01
R_Toe1_03 R_Toe1_02
R_Toe2_02 R_Toe2_01
R_Toe2_03 R_Toe2_02
R_Toe3_02 R_Toe3_01
R_Toe3_03 R_Toe3_02
Rear_Leg02 Rear_Leg01
Rear_Leg03 Rear_Leg02
Rear_Leg04 Rear_Leg03
Rear_Foot Rear_Leg04
planeAlignerCenter Rear_Foot
Rear_Toe1_01 Rear_Foot
Rear_Toe2_01 Rear_Foot
Rear_Toe3_01 Rear_Foot
planeLockWeightCenter planeAlignerCenter
Rear_Toe1_02 Rear_Toe1_01
Rear_Toe1_03 Rear_Toe1_02
Rear_Toe2_02 Rear_Toe2_01
Rear_Toe2_03 Rear_Toe2_02
Rear_Toe3_02 Rear_Toe3_01
Rear_Toe3_03 Rear_Toe3_02
Back_Bone Spine1
Head Spine1
Motor_Bone Back_Bone
Ping_Mechanism Back_Bone
BN_LookIK Head
bottomMouth Head
L_Mouth01 Head
L_mouthFront Head
mouthGun Head
R_Mouth01 Head
R_mouthFront Head
TopMouth Head
weapon_bone Head
[BasePosition]
#SegmentName Tx, Ty, Tz, Rx, Ry, Rz, BoneLength
Pinger_Root 0.000000 0.000000 0.000000 -90.000000 0.000000 0.000000 10.000000 
Pelvis 0.000000 0.000000 0.000000 0.000000 0.000000 0.000000 10.000000 
L_Hip 0.000000 0.000000 0.000000 0.000000 0.000000 0.000000 10.000000 
R_Hip 0.000000 0.000000 0.000000 0.000000 0.000000 0.000000 10.000000 
Rear_Leg01 0.000000 0.000000 0.000000 0.000000 0.000000 0.000000 10.000000 
Spine1 0.000000 0.000000 0.000000 0.000000 0.000000 0.000000 10.000000 
L_Leg01 0.000000 0.000000 0.000000 0.000000 0.000000 0.000000 10.000000 
L_Leg02 0.000000 0.000000 0.000000 0.000000 0.000000 0.000000 10.000000 
L_Leg03 0.000000 0.000000 0.000000 0.000000 0.000000 0.000000 10.000000 
L_Foot 0.000000 0.000000 0.000000 0.000000 0.000000 0.000000 10.000000 
L_Toe1_01 0.000000 0.000000 0.000000 0.000000 0.000000 0.000000 10.000000 
L_Toe2_01 0.000000 0.000000 0.000000 0.000000 0.000000 0.000000 10.000000 
L_Toe3_01 0.000000 0.000000 0.000000 0.000000 0.000000 0.000000 10.000000 
planeAlignerLeft 0.000000 0.000000 0.000000 0.000000 0.000000 0.000000 10.000000 
L_Toe1_02 0.000000 0.000000 0.000000 0.000000 0.000000 0.000000 10.000000 
L_Toe1_03 0.000000 0.000000 0.000000 0.000000 0.000000 0.000000 10.000000 
L_Toe2_02 0.000000 0.000000 0.000000 0.000000 0.000000 0.000000 10.000000 
L_Toe2_03 0.000000 0.000000 0.000000 0.000000 0.000000 0.000000 10.000000 
L_Toe3_02 0.000000 0.000000 0.000000 0.000000 0.000000 0.000000 10.000000 
L_Toe3_03 0.000000 0.000000 0.000000 0.000000 0.000000 0.000000 10.000000 
planeLockWeightLeft 0.000000 0.000000 0.000000 0.000000 0.000000 0.000000 10.000000 
R_Leg01 0.000000 0.000000 0.000000 0.000000 0.000000 0.000000 10.000000 
R_Leg02 0.000000 0.000000 0.000000 0.000000 0.000000 0.000000 10.000000 
R_Leg03 0.000000 0.000000 0.000000 0.000000 0.000000 0.000000 10.000000 
R_Foot 0.000000 0.000000 0.000000 0.000000 0.000000 0.000000 10.000000 
planeAlignerRight 0.000000 0.000000 0.000000 0.000000 0.000000 0.000000 10.000000 
R_Toe1_01 0.000000 0.000000 0.000000 0.000000 0.000000 0.000000 10.000000 
R_Toe2_01 0.000000 0.000000 0.000000 0.000000 0.000000 0.000000 10.000000 
R_Toe3_01 0.000000 0.000000 0.000000 0.000000 0.000000 0.000000 10.000000 
planeLockWeightRight 0.000000 0.000000 0.000000 0.000000 0.000000 0.000000 10.000000 
R_Toe1_02 0.000000 0.000000 0.000000 0.000000 0.000000 0.000000 10.000000 
R_Toe1_03 0.000000 0.000000 0.000000 0.000000 0.000000 0.000000 10.000000 
R_Toe2_02 0.000000 0.000000 0.000000 0.000000 0.000000 0.000000 10.000000 
R_Toe2_03 0.000000 0.000000 0.000000 0.000000 0.000000 0.000000 10.000000 
R_Toe3_02 0.000000 0.000000 0.000000 0.000000 0.000000 0.000000 10.000000 
R_Toe3_03 0.000000 0.000000 0.000000 0.000000 0.000000 0.000000 10.000000 
Rear_Leg02 0.000000 0.000000 0.000000 0.000000 0.000000 0.000000 10.000000 
Rear_Leg03 0.000000 0.000000 0.000000 0.000000 0.000000 0.000000 10.000000 
Rear_Leg04 0.000000 0.000000 0.000000 0.000000 0.000000 0.000000 10.000000 
Rear_Foot 0.000000 0.000000 0.000000 0.000000 0.000000 0.000000 10.000000 
planeAlignerCenter 0.000000 0.000000 0.000000 0.000000 0.000000 0.000000 10.000000 
Rear_Toe1_01 0.000000 0.000000 0.000000 0.000000 0.000000 0.000000 10.000000 
Rear_Toe2_01 0.000000 0.000000 0.000000 0.000000 0.000000 0.000000 10.000000 
Rear_Toe3_01 0.000000 0.000000 0.000000 0.000000 0.000000 0.000000 10.000000 
planeLockWeightCenter 0.000000 0.000000 0.000000 0.000000 0.000000 0.000000 10.000000 
Rear_Toe1_02 0.000000 0.000000 0.000000 0.000000 0.000000 0.000000 10.000000 
Rear_Toe1_03 0.000000 0.000000 0.000000 0.000000 0.000000 0.000000 10.000000 
Rear_Toe2_02 0.000000 0.000000 0.000000 0.000000 0.000000 0.000000 10.000000 
Rear_Toe2_03 0.000000 0.000000 0.000000 0.000000 0.000000 0.000000 10.000000 
Rear_Toe3_02 0.000000 0.000000 0.000000 0.000000 0.000000 0.000000 10.000000 
Rear_Toe3_03 0.000000 0.000000 0.000000 0.000000 0.000000 0.000000 10.000000 
Back_Bone 0.000000 0.000000 0.000000 0.000000 0.000000 0.000000 10.000000 
Head 0.000000 0.000000 0.000000 0.000000 0.000000 0.000000 10.000000 
Motor_Bone 0.000000 0.000000 0.000000 0.000000 0.000000 0.000000 10.000000 
Ping_Mechanism 0.000000 0.000000 0.000000 0.000000 0.000000 0.000000 10.000000 
BN_LookIK 0.000000 0.000000 0.000000 0.000000 0.000000 0.000000 10.000000 
bottomMouth 0.000000 0.000000 0.000000 0.000000 0.000000 0.000000 10.000000 
L_Mouth01 0.000000 0.000000 0.000000 0.000000 0.000000 0.000000 10.000000 
L_mouthFront 0.000000 0.000000 0.000000 0.000000 0.000000 0.000000 10.000000 
mouthGun 0.000000 0.000000 0.000000 0.000000 0.000000 0.000000 10.000000 
R_Mouth01 0.000000 0.000000 0.000000 0.000000 0.000000 0.000000 10.000000 
R_mouthFront 0.000000 0.000000 0.000000 0.000000 0.000000 0.000000 10.000000 
TopMouth 0.000000 0.000000 0.000000 0.000000 0.000000 0.000000 10.000000 
weapon_bone 0.000000 0.000000 0.000000 0.000000 0.000000 0.000000 10.000000 
#Beginning of Data. Separated by tabs
#Fr	Tx	Ty	Tz	Rx	Ry	Rz	SF
[Pinger_Root]
18 0.000000 2203.703613 0.000000 -0.000075 -0.000000 -0.000020 2203.703613
19 0.000000 2333.333008 0.000000 -0.000075 -0.000000 -0.000020 2333.333008
20 0.000000 2462.962891 0.000000 -0.000075 -0.000000 -0.000020 2462.962891
[Pelvis]
18 -362.387878 1184.786987 4977.246094 48.938553 -77.105721 -43.165478 5129.135254
19 -356.651978 1126.643311 4961.095703 47.007011 -76.324959 -39.454678 5099.901855
20 -340.196533 1073.965332 4959.536621 43.610146 -75.091049 -34.343006 5085.875977
[L_Hip]
18 5.766392 125.831482 872.656799 -178.250168 -81.786369 87.376007 881.701050
19 5.766392 125.831482 872.656799 -178.250168 -81.786369 87.376007 881.701050
20 5.766392 125.831482 872.656799 -178.250168 -81.786369 87.376007 881.701050
[R_Hip]
18 5.765438 125.836372 -872.654907 -1.748770 81.786041 87.376961 881.699829
19 5.765438 125.836372 -872.654907 -1.748770 81.786041 87.376961 881.699829
20 5.765438 125.836372 -872.654907 -1.748770 81.786041 87.376961 881.699829
[Rear_Leg01]
18 -192.298416 -925.602966 -0.001907 -177.502014 13.045295 -174.531036 945.367432
19 -192.298416 -925.602966 -0.001907 -174.085251 13.011724 -167.392578 945.367432
20 -192.298416 -925.602966 -0.001907 -170.684540 12.903576 -160.642014 945.367432
[Spine1]
18 290.604584 5.007505 0.000477 -7.472556 -4.535169 38.212090 290.647736
19 290.604584 5.007505 0.000477 -9.722695 -4.481299 37.739761 290.647736
20 290.604584 5.007505 0.000477 -12.335160 -4.934582 37.736477 290.647736
[L_Leg01]
18 761.932007 -0.002384 -0.069261 75.634636 11.640560 -88.346291 761.932068
19 761.932007 -0.002384 -0.069261 76.241096 12.974041 -89.030571 761.932068
20 761.932007 -0.002384 -0.069261 76.825920 14.049925 -90.061020 761.932068
[L_Leg02]
18 1441.140503 -0.000954 -0.000715 -1.386456 0.729501 -87.439026 1441.140503
19 1441.140503 -0.000954 -0.000715 -1.400347 0.717264 -86.193199 1441.140503
20 1441.140503 -0.000954 -0.000715 -1.397183 0.721842 -83.851601 1441.140503
[L_Leg03]
18 1686.963989 -0.000715 -0.000954 0.079428 -0.013142 88.780190 1686.963989
19 1686.963989 -0.000715 -0.000954 0.079362 -0.013536 89.349098 1686.963989
20 1686.963989 -0.000715 -0.000954 0.079457 -0.012965 88.524384 1686.963989
[L_Foot]
18 3041.570068 -30.715107 11.297464 -13.560086 12.092237 85.209229 3041.746094
19 3041.570068 -30.715107 11.297464 -14.168604 10.972443 84.767906 3041.746094
20 3041.570068 -30.715107 11.297464 -14.766166 9.848153 84.340248 3041.746094
[L_Toe1_01]
18 -188.216690 -224.732346 -21.137953 89.042984 -1.722960 -153.909714 293.899567
19 -188.216690 -224.732346 -21.137953 88.995667 -1.693921 -152.375153 293.899567
20 -188.216690 -224.732346 -21.137953 88.949104 -1.663625 -150.840912 293.899567
[L_Toe2_01]
18 200.746536 -219.926590 148.838394 -76.002090 -12.038284 -52.509464 332.896027
19 200.746536 -219.926590 148.838394 -75.741936 -11.744598 -53.835262 332.896027
20 200.746536 -219.926590 148.838394 -75.489067 -11.445144 -55.158085 332.896027
[L_Toe3_01]
18 188.832520 -219.859131 -191.078659 -108.155357 14.877390 -54.449516 347.140900
19 188.832520 -219.859131 -191.078659 -108.478653 14.494591 -55.777153 347.140900
20 188.832520 -219.859131 -191.078659 -108.792107 14.104716 -57.100079 347.140900
[planeAlignerLeft]
18 -68.447266 -719.241394 0.057907 0.000000 -90.000000 -90.001900 722.490967
19 -70.771172 -735.932678 0.054881 0.000000 -90.000000 -90.001900 739.327698
20 -73.095093 -752.623962 0.051854 0.000000 -90.000000 -90.001900 756.165161
[L_Toe1_02]
18 413.761139 0.000477 0.000000 0.001388 -25.496168 0.001388 413.761139
19 413.761139 0.000477 0.000000 0.001386 -25.716486 0.001386 413.761139
20 413.761139 0.000477 0.000000 0.001384 -25.936796 0.001384 413.761139
[L_Toe1_03]
18 464.317322 0.000358 -0.000089 0.004733 61.274586 0.004733 464.317322
19 464.317322 0.000358 -0.000089 0.004376 58.885731 0.004376 464.317322
20 464.317322 0.000358 -0.000089 0.004059 56.373413 0.004059 464.317322
[L_Toe2_02]
18 342.235809 -0.000477 0.000238 0.001181 -77.148933 0.001181 342.235809
19 342.235809 -0.000477 0.000238 0.001182 -76.747871 0.001182 342.235809
20 342.235809 -0.000477 0.000238 0.001182 -76.346779 0.001182 342.235809
[L_Toe2_03]
18 420.210846 -0.000715 0.000000 -179.995621 79.259171 -179.992111 420.210846
19 420.210846 -0.000715 0.000000 -179.994537 80.860313 -179.991028 420.210846
20 420.210846 -0.000715 0.000000 -179.993011 82.462250 -179.989502 420.210846
[L_Toe3_02]
18 329.270111 0.000954 0.000000 0.001177 -80.797577 0.001177 329.270111
19 329.270111 0.000954 0.000000 0.001178 -80.426216 0.001178 329.270111
20 329.270111 0.000954 0.000000 0.001178 -80.054871 0.001178 329.270111
[L_Toe3_03]
18 439.137451 -0.001907 0.000954 -179.996567 77.304680 -179.993042 439.137451
19 439.137451 -0.001907 0.000954 -179.995865 78.795456 -179.992355 439.137451
20 439.137451 -0.001907 0.000954 -179.994965 80.286469 -179.991455 439.137451
[planeLockWeightLeft]
18 999.998718 0.098167 0.076256 -0.011826 -0.004376 0.005620 999.998779
19 999.998718 0.098161 0.076265 -0.011826 -0.004376 0.005620 999.998779
20 999.998718 0.098155 0.076273 -0.011826 -0.004376 0.005620 999.998779
[R_Leg01]
18 761.455627 -0.001907 -0.000358 79.638115 -21.508791 72.007820 761.455688
19 761.455627 -0.001907 -0.000358 81.649895 -18.943504 67.374382 761.455688
20 761.455627 -0.001907 -0.000358 83.754395 -15.727436 62.403278 761.455688
[R_Leg02]
18 1441.140625 0.000000 -0.000238 -0.736351 -0.014886 -154.863800 1441.140625
19 1441.140625 0.000000 -0.000238 -0.994033 -0.170599 -157.923996 1441.140625
20 1441.140625 0.000000 -0.000238 -1.226529 -0.421331 -159.309616 1441.140625
[R_Leg03]
18 1686.963989 0.000954 0.001431 0.018699 -0.007709 114.815834 1686.963989
19 1686.963989 0.000954 0.001431 0.055709 -0.028738 125.308525 1686.963989
20 1686.963989 0.000954 0.001431 0.091822 -0.049448 135.061172 1686.963989
[R_Foot]
18 3041.560059 -30.531288 -11.204481 27.649977 -40.002907 72.801041 3041.734131
19 3041.560059 -30.531288 -11.204481 23.780725 -41.586441 73.638298 3041.734131
20 3041.560059 -30.531288 -11.204481 19.171072 -42.627033 74.728149 3041.734131
[planeAlignerRight]
18 -211.257935 -810.874939 13.950728 0.000000 -89.960434 -90.005180 838.058899
19 -217.224564 -806.250793 13.784733 0.000000 -89.960434 -90.005180 835.114868
20 -223.191223 -801.626648 13.618735 0.000000 -89.960434 -90.005180 832.228943
[R_Toe1_01]
18 -188.383347 -224.864899 21.052242 91.380020 0.750072 -144.704132 294.101532
19 -188.383347 -224.864899 21.052242 91.351585 0.826883 -144.882294 294.101532
20 -188.383347 -224.864899 21.052242 91.322899 0.903608 -145.060516 294.101532
[R_Toe2_01]
18 200.637817 -220.002121 -148.787384 -107.540230 5.875056 -82.471642 332.857574
19 200.637817 -220.002121 -148.787384 -107.585670 6.263541 -82.924301 332.857574
20 200.637817 -220.002121 -148.787384 -107.601166 6.765325 -82.828613 332.857574
[R_Toe3_01]
18 188.606735 -220.092957 191.126343 -67.231812 -8.857442 -83.931519 347.192566
19 188.606735 -220.092957 191.126343 -67.197235 -9.123089 -84.382835 347.192566
20 188.606735 -220.092957 191.126343 -67.209320 -9.475355 -84.285568 347.192566
[planeLockWeightRight]
18 -0.000109 -0.000643 0.076447 -0.011823 -0.004379 -0.000027 0.076449
19 -0.000136 -0.000632 0.076447 -0.011823 -0.004379 -0.000027 0.076449
20 -0.000163 -0.000621 0.076447 -0.011823 -0.004379 -0.000027 0.076449
[R_Toe1_02]
18 413.762085 0.000477 -0.000119 0.001410 -22.626890 0.001410 413.762085
19 413.762085 0.000477 -0.000119 0.001407 -23.028954 0.001407 413.762085
20 413.762085 0.000477 -0.000119 0.001404 -23.431030 0.001404 413.762085
[R_Toe1_03]
18 464.317810 0.000000 0.001088 0.013696 80.166565 0.013696 464.317810
19 464.317810 0.000000 0.001088 0.011625 78.408470 0.011625 464.317810
20 464.317810 0.000000 0.001088 0.010097 76.650749 0.010097 464.317810
[R_Toe2_02]
18 342.234741 -0.000954 0.000238 -0.002332 -80.202309 -0.002332 342.234741
19 342.234741 -0.000954 0.000238 -0.002331 -80.283272 -0.002331 342.234741
20 342.234741 -0.000954 0.000238 -0.002331 -80.364143 -0.002331 342.234741
[R_Toe2_03]
18 420.210846 0.000715 -0.000268 -179.996017 59.299992 -179.999634 420.210846
19 420.210846 0.000715 -0.000268 -179.996094 58.123394 -179.999741 420.210846
20 420.210846 0.000715 -0.000268 -179.996155 56.946907 -179.999802 420.210846
[R_Toe3_02]
18 329.270355 -0.000477 -0.000954 0.001175 -83.814575 0.001175 329.270355
19 329.270355 -0.000477 -0.000954 0.001175 -83.918205 0.001175 329.270355
20 329.270355 -0.000477 -0.000954 0.001175 -84.021744 0.001175 329.270355
[R_Toe3_03]
18 439.137939 0.000238 0.001431 -179.995041 58.582104 -179.987793 439.137939
19 439.137939 0.000238 0.001431 -179.995361 57.418983 -179.988083 439.137939
20 439.137939 0.000238 0.001431 -179.995651 56.256008 -179.988342 439.137939
[Rear_Leg02]
18 1162.777710 -0.029802 0.005960 -1.885832 1.498937 -156.664474 1162.777710
19 1162.777710 -0.029802 0.005960 -3.607677 2.489897 -151.841522 1162.777710
20 1162.777710 -0.029802 0.005960 -5.055220 3.169405 -146.056564 1162.777710
[Rear_Leg03]
18 607.192505 -0.013351 -0.073195 0.010063 -0.005907 77.181290 607.192505
19 607.192505 -0.013351 -0.073195 0.010040 -0.005945 77.616043 607.192505
20 607.192505 -0.013351 -0.073195 0.010018 -0.005983 78.050789 607.192505
[Rear_Leg04]
18 995.874512 -0.020504 -0.011921 -0.043152 -0.017395 90.246826 995.874573
19 995.874512 -0.020504 -0.011921 -0.043473 -0.016577 92.411095 995.874573
20 995.874512 -0.020504 -0.011921 -0.043630 -0.016160 93.509201 995.874573
[Rear_Foot]
18 3096.176270 -0.067472 -0.041425 25.543152 84.604614 -169.822052 3096.176270
19 3096.176270 -0.067472 -0.041425 42.357666 83.872757 -154.129242 3096.176270
20 3096.176270 -0.067472 -0.041425 54.973660 82.767113 -142.635941 3096.176270
[planeAlignerCenter]
18 1.037903 -73.981163 -695.428284 0.000009 0.000003 -179.999985 699.353149
19 1.037064 -69.444130 -712.850403 0.000009 0.000003 -179.999985 716.225708
20 1.038055 -57.494049 -735.733826 0.000009 0.000003 -179.999985 737.977539
[Rear_Toe1_01]
18 0.653352 83.966492 -371.173737 0.070576 16.783192 90.031029 380.553192
19 0.653352 83.966492 -371.173737 0.066951 18.145378 90.027344 380.553192
20 0.653352 83.966492 -371.173737 0.067965 20.216469 90.029053 380.553192
[Rear_Toe2_01]
18 178.200760 -294.826019 -362.060547 -0.775070 45.409832 -73.583946 499.765686
19 178.200760 -294.826019 -362.060547 -0.767460 46.404072 -73.499916 499.765686
20 178.200760 -294.826019 -362.060547 -0.631943 47.947758 -73.144836 499.765686
[Rear_Toe3_01]
18 -153.359680 -308.780914 -362.060852 0.743332 45.418209 -108.464462 499.952881
19 -153.359680 -308.780914 -362.060852 0.737471 46.412048 -108.547821 499.952881
20 -153.359680 -308.780914 -362.060852 0.581875 47.952774 -108.948242 499.952881
[planeLockWeightCenter]
18 1000.000610 0.000417 0.076201 -0.011814 -0.004373 -0.000015 1000.000610
19 1000.000610 0.000412 0.076204 -0.011814 -0.004373 -0.000015 1000.000610
20 1000.000610 0.000408 0.076207 -0.011814 -0.004373 -0.000015 1000.000610
[Rear_Toe1_02]
18 379.707825 0.194073 0.000477 -0.000767 -33.624729 0.000838 379.707855
19 379.707825 0.194073 0.000477 -0.000767 -33.624729 0.000838 379.707855
20 379.707825 0.194073 0.000477 -0.000767 -33.624729 0.000838 379.707855
[Rear_Toe1_03]
18 500.129700 0.165701 0.000119 -179.989639 82.344063 -179.993149 500.129761
19 500.129700 0.165701 0.000119 -179.987076 84.110275 -179.990570 500.129761
20 500.129700 0.165701 0.000119 -179.973007 87.390152 -179.976517 500.129761
[Rear_Toe2_02]
18 340.494507 0.000238 -0.000954 0.001185 -73.966621 0.001185 340.494507
19 340.494507 0.000238 -0.000954 0.001186 -73.607918 0.001186 340.494507
20 340.494507 0.000238 -0.000954 0.001185 -73.815155 0.001185 340.494507
[Rear_Toe2_03]
18 433.103577 0.000000 0.000238 0.009934 76.430244 0.009934 433.103546
19 433.103577 0.000000 0.000238 0.009501 75.808411 0.009501 433.103546
20 433.103577 0.000000 0.000238 0.009581 75.927528 0.009581 433.103546
[Rear_Toe3_02]
18 340.494141 -0.000358 -0.000477 0.001185 -73.997574 0.001185 340.494171
19 340.494141 -0.000358 -0.000477 0.001186 -73.632637 0.001186 340.494171
20 340.494141 -0.000358 -0.000477 0.001185 -73.821304 0.001185 340.494171
[Rear_Toe3_03]
18 433.103577 0.001431 -0.000238 0.009975 76.486908 0.009975 433.103546
19 433.103577 0.001431 -0.000238 0.009530 75.852272 0.009530 433.103546
20 433.103577 0.001431 -0.000238 0.009594 75.946365 0.009594 433.103546
[Back_Bone]
18 1312.175781 -701.934692 0.000954 -0.529539 -3.650512 -81.000999 1488.125488
19 1312.175781 -701.934692 0.000954 -0.094081 -3.656273 -82.832481 1488.125488
20 1312.175781 -701.934692 0.000954 0.341339 -3.648141 -84.663963 1488.125488
[Head]
18 1406.159424 809.709290 0.001431 -1.894258 -1.361184 4.891370 1622.625488
19 1406.159424 809.709290 0.001431 -1.476488 -1.540995 4.842095 1622.625488
20 1406.159424 809.709290 0.001431 -1.058519 -1.720446 4.791504 1622.625488
[Motor_Bone]
18 1158.364380 -417.834747 0.000477 5.387621 -1.836375 -107.820099 1231.419434
19 1158.364380 -417.834747 0.000477 -0.064466 0.133410 -105.853729 1231.419434
20 1158.364380 -417.834747 0.000477 -5.513655 1.191246 -104.796577 1231.419434
[Ping_Mechanism]
18 1184.763550 -401.748322 47.584175 0.000103 -0.000053 82.120995 1251.930786
19 1185.172607 -401.849945 53.219170 0.000103 -0.000053 82.120995 1252.577271
20 1186.732300 -402.119751 61.714283 0.000103 -0.000053 82.120995 1254.528687
[BN_LookIK]
18 193.241119 1380.371704 -0.002861 0.000000 89.965736 -31.038179 1393.832153
19 193.241119 1380.371704 -0.002861 0.000000 89.965736 -31.038179 1393.832153
20 193.241119 1380.371704 -0.002861 0.000000 89.965736 -31.038179 1393.832153
[bottomMouth]
18 -435.092926 615.759399 -0.000954 -0.000022 0.000016 73.527184 753.966492
19 -435.092926 615.759399 -0.000954 -0.000022 0.000016 73.527184 753.966492
20 -435.092926 615.759399 -0.000954 -0.000022 0.000016 73.527184 753.966492
[L_Mouth01]
18 554.440979 7.658243 838.222046 150.204178 23.759130 109.605339 1005.027161
19 554.440979 7.658243 838.222046 150.204178 23.759130 109.605339 1005.027161
20 554.440979 7.658243 838.222046 150.204178 23.759130 109.605339 1005.027161
[L_mouthFront]
18 551.629089 934.514771 339.150421 0.000081 2.804060 79.119301 1136.941284
19 551.629089 934.514771 339.150421 0.000081 2.804060 79.119301 1136.941284
20 551.629089 934.514771 339.150421 0.000081 2.804060 79.119301 1136.941284
[mouthGun]
18 55.332661 1627.420898 0.000000 0.000023 0.000009 -11.038128 1628.361328
19 55.332661 1627.420898 0.000000 0.000023 0.000009 -11.038128 1628.361328
20 55.332661 1627.420898 0.000000 0.000023 0.000009 -11.038128 1628.361328
[R_Mouth01]
18 554.442383 7.659197 -838.223938 29.795891 -23.759109 109.605331 1005.029541
19 554.442383 7.659197 -838.223938 29.795891 -23.759109 109.605331 1005.029541
20 554.442383 7.659197 -838.223938 29.795891 -23.759109 109.605331 1005.029541
[R_mouthFront]
18 551.629089 934.514282 -339.151367 0.000029 -2.803930 79.119133 1136.941162
19 551.629089 934.514282 -339.151367 0.000029 -2.803930 79.119133 1136.941162
20 551.629089 934.514282 -339.151367 0.000029 -2.803930 79.119133 1136.941162
[TopMouth]
18 461.269867 -56.106091 -0.008583 -0.000059 -0.000268 92.025169 464.669525
19 461.269867 -56.106091 -0.008583 -0.000059 -0.000268 92.025169 464.669525
20 461.269867 -56.106091 -0.008583 -0.000059 -0.000268 92.025169 464.669525
[weapon_bone]
18 -987.239868 1448.372803 0.001431 0.000000 89.965736 -31.038221 1752.833740
19 -987.239868 1448.372803 0.001431 0.000000 89.965736 -31.038221 1752.833740
20 -987.239868 1448.372803 0.001431 0.000000 89.965736 -31.038221 1752.833740
